<?xml version="1.0" encoding="UTF-8" standalone="no"?>
<svg width="228px" height="331px" viewBox="0 0 228 331" version="1.1" xmlns="http://www.w3.org/2000/svg" xmlns:xlink="http://www.w3.org/1999/xlink">
    <!-- Generator: Sketch 39.1 (31720) - http://www.bohemiancoding.com/sketch -->
    <title>france</title>
    <desc>Created with Sketch.</desc>
    <defs></defs>
    <g id="Homepage" stroke="none" stroke-width="1" fill="none" fill-rule="evenodd" fill-opacity="0.300000012">
        <g id="Mobile-Portrait" transform="translate(-92.000000, -860.000000)" fill="#FFD52E">
            <g id="Solutions-sont-là" transform="translate(-95.000000, 860.000000)">
                <g id="Carte-event" transform="translate(135.000000, 0.000000)">
                    <polygon id="france" points="384.279518 84.8595453 380.192399 82.6789627 379.726815 82.6229747 378.259342 82.7791516 376.1097 82.1573909 375.826814 82.2369527 375.222734 82.5640401 374.903013 82.6509687 374.655487 82.6097144 374.108868 82.4137567 373.821562 82.3695557 373.501841 82.4373305 373.196854 82.5640401 372.888921 82.6391818 372.532366 82.5640401 372.290734 82.3607155 372.040262 81.8465105 371.853144 81.6151919 371.280004 81.3175719 370.149932 81.1157206 369.591526 80.7665327 369.249705 80.3274695 368.664779 79.3904083 368.305277 79.0058596 368.350951 78.8762033 368.414306 78.7892747 368.610264 78.6669853 368.43788 78.0967924 367.970823 77.9258818 366.849591 77.8492668 366.742035 77.4102035 366.244037 77.3660025 365.63701 77.5501733 365.20826 77.7932788 365.084498 77.9877632 364.89738 78.5638496 364.769197 78.7819079 364.570293 78.8673631 364.051668 78.9366114 363.815929 79.0146998 363.655332 79.2077108 363.381286 79.7705369 363.235422 79.9267138 363.070405 79.9031399 362.37645 79.5760525 360.153139 79.5510053 359.74649 79.4198756 359.344261 79.2032907 358.354159 78.4828144 358.215662 78.4695541 357.98287 78.7023461 357.997604 78.9218777 358.083059 79.1222556 358.043278 79.3255802 357.249134 79.8235781 356.681888 79.3742013 356.385741 78.2986436 356.394581 76.9077855 355.842069 76.8842116 354.230205 75.9648308 353.942899 75.9265233 353.194429 75.9957715 352.115924 75.7541394 351.856612 75.8189675 351.709275 76.3611664 351.905233 76.9991342 351.998055 77.653309 351.554572 78.2456024 351.228957 78.3236908 350.227068 77.9479823 349.073422 77.9317753 348.768435 77.8080125 348.442821 77.2569734 348.512069 76.7737091 348.647619 76.2742378 348.484075 75.6524771 348.3721 75.6524771 348.028805 75.8779022 347.913882 75.8955826 347.844634 75.7541394 347.796013 75.443259 347.766546 75.3578037 347.681091 75.1854198 347.476293 74.4619968 347.37021 74.3470742 347.010709 74.2159446 346.872212 74.1142823 346.845692 73.9492652 346.895786 73.5529296 346.854532 73.382019 345.145427 71.7333217 344.710783 71.2029097 344.544293 70.7461661 344.694576 70.3866646 345.145427 70.3630907 345.263296 70.0433702 345.177841 69.8105782 343.922532 68.4816015 343.744255 68.2149222 343.792876 68.2001885 343.781089 67.9747634 343.713314 67.647676 343.560084 67.3205886 343.113654 66.8947856 340.7489 65.7116722 340.460121 65.6630511 340.247956 65.7426129 339.761745 66.0770671 339.487699 66.1301083 339.26964 66.1080078 338.748068 66.0549666 338.064426 65.6792581 336.788491 64.7230432 336.081275 64.4401568 335.350485 64.3664884 333.871225 64.5270854 334.034769 64.8939537 333.309872 64.9632019 333.122755 65.0353969 332.993098 65.2755557 332.993098 65.5319215 332.929744 65.7426129 332.618863 65.8590089 332.368391 66.2406108 331.986789 66.3835274 329.792946 66.5102369 329.345042 66.6649404 328.995855 65.5319215 328.500803 65.0412904 326.869786 64.6523216 326.217085 64.3502814 325.770655 63.9288985 324.955883 62.8489208 324.68331 62.7796725 324.659736 62.769359 324.09249 62.4275379 323.811077 62.3818635 323.539978 62.5292002 323.20405 62.9712102 322.91527 63.0964464 322.887276 63.11118 322.322977 63.0124645 321.770464 62.7384183 321.197325 62.6072886 321.185538 62.6072886 320.553464 62.9329027 320.239636 63.3528122 320.239636 63.3631257 320.185122 63.6430654 320.161548 63.6784262 320.098193 63.7977689 319.925809 63.818396 319.718065 63.8508101 319.494113 63.7889287 318.685235 63.4161669 318.352254 63.5635036 318.20197 63.6327518 317.89109 63.8758573 317.558109 64.1410633 317.042431 64.4401568 316.886254 64.5270854 316.329321 64.3812221 316.199665 64.1086493 316.170198 64.0305608 316.196718 63.6784262 316.282174 63.3056644 316.282174 62.8945951 316.179038 62.5292002 314.935516 60.2793693 314.452252 59.8506196 313.649267 59.5559463 313.525505 59.4808046 313.364908 59.3791423 313.208731 59.354095 313.198417 59.354095 313.105595 59.454284 312.996566 59.6738156 312.855123 59.8756668 312.812395 59.8904005 312.676845 59.9375482 312.251042 59.8506196 312.115493 59.6944427 312.115493 59.691496 312.087499 59.5102719 312.060978 59.3319945 312.142013 58.7721152 312.142013 58.7618016 312.172954 58.747068 312.348285 58.6321454 312.389539 58.5746841 312.466154 58.4892288 312.287877 57.8939887 311.791352 57.2854883 311.246206 56.7462361 310.935326 56.7565496 310.693694 56.7624431 310.279678 56.8803124 309.525314 57.0895305 308.935967 56.9127265 308.461543 56.5620652 308.334834 56.4456693 308.078468 56.1937236 307.441974 55.2728694 306.982283 54.6010142 306.671403 54.3078142 306.463658 54.2415127 305.753495 54.0411349 305.240764 53.7435148 304.283076 52.7931933 303.863166 52.5707149 303.813072 52.5368275 303.552286 52.5530345 303.272346 52.5707149 302.766981 52.7489923 302.152587 52.9611571 301.722364 53.0304053 301.575028 53.0510325 301.163958 52.9994646 300.898752 52.9611571 300.898752 52.9493702 300.66596 52.6546968 300.671854 51.9636879 300.671854 51.160703 300.611446 50.9367513 300.611446 50.9279111 300.35508 50.509475 300.300565 50.3061504 300.343293 50.0645182 300.579032 49.7993122 300.596712 49.7536379 300.66596 49.5900942 300.693954 49.464858 300.80593 49.0994631 300.866338 48.9462329 300.938533 48.7679556 300.998941 48.4246611 300.976841 48.183029 300.95032 47.901616 300.564298 47.1767196 300.553985 47.1693527 300.553985 47.1649326 299.842348 46.8746794 299.33551 46.6654614 299.328143 46.6654614 298.984849 46.105582 299.102718 45.4676143 299.808461 43.7010476 300.086927 42.9923583 300.098714 42.9157432 300.113448 42.5636086 300.07514 42.2321011 300.098714 41.9742619 300.104608 41.8711262 300.240157 41.5690861 300.587872 40.8161957 300.587872 40.8058821 300.751416 40.7675746 301.016622 41.0622479 301.022515 41.0696148 301.062296 40.6600188 301.08587 40.3623988 301.224366 39.5387868 301.231733 39.3531426 301.255307 38.8315708 301.016622 38.5206904 300.213637 38.6886542 299.91749 38.5663648 299.808461 37.9976453 299.802568 37.9681779 299.108612 38.2849518 296.35489 41.0696148 296.204606 41.3893353 296.136831 41.7871443 296.185452 41.9580549 296.198713 42.0273031 296.23702 42.1142317 296.291535 42.2203141 296.309215 42.3543905 296.322475 42.5017272 296.254701 42.92311 296.119151 43.7791361 295.94382 44.4156305 295.905513 44.4863521 295.709555 44.8753209 295.515071 44.9976103 295.428142 45.0535982 294.346691 45.2274555 293.450884 45.6768323 290.751676 47.0102291 289.992892 47.1487256 286.590889 46.2160845 285.9264 46.0274936 285.180877 46.1350494 283.955036 46.3133267 283.675096 46.2367117 283.607321 46.2160845 282.161948 45.4352002 282.176682 45.4352002 282.366746 45.4499339 282.346119 45.0845389 282.334332 44.8694274 282.265084 44.558547 282.194363 44.2535601 282.076493 44.2078858 282.0706 44.2078858 282.179629 43.7334617 282.291605 43.4756225 282.303392 43.4432085 282.306338 43.437315 282.496403 43.2015763 282.780762 42.9393171 282.96788 42.7595663 283.384843 42.4619463 283.56312 42.3381835 283.909361 42.1628528 284.184881 42.0273031 284.187828 41.8401855 284.187828 41.7665172 284.012497 41.4423765 283.919675 41.2257916 283.857793 41.0696148 283.42315 39.3354622 283.163838 39.2043326 282.889792 39.2500069 282.378533 39.4827989 282.216463 39.4047104 282.010192 39.298628 282.06176 38.6974944 282.0706 38.5737316 282.384427 37.5615287 282.568598 36.9633419 282.702674 36.2310786 282.813177 35.9364053 282.820543 35.9039912 283.09459 35.5061823 283.70751 35.0361783 283.744344 34.9875572 283.957982 34.7459251 283.99187 34.536707 284.021337 34.3260156 283.862214 34.0608096 283.54102 33.7823433 283.324435 33.6423734 283.197725 33.564285 282.964933 33.4788297 282.645213 33.6173262 282.639319 33.6173262 282.629006 33.8751654 282.645213 34.022502 282.662893 34.155105 282.659946 34.155105 282.590698 34.2258266 282.469882 34.3407492 282.153108 34.1934126 281.995458 34.1167975 281.457679 32.9543112 281.292662 32.6065967 281.289715 32.5977565 280.75783 32.1248058 280.404222 31.9200078 280.208264 31.8050852 279.353712 30.8562371 279.330138 30.8473969 278.84982 30.6146049 278.611135 30.6440723 278.306148 30.6764863 277.218803 31.1376501 276.663344 31.3689687 276.081364 31.3689687 275.972335 31.3218209 275.621674 31.1509104 275.371202 30.9829466 275.175244 30.84003 274.646305 30.5689306 273.572221 30.442221 272.446569 30.5203095 272.297759 30.5851376 272.098854 30.6543858 271.888163 30.896018 271.425526 31.6783757 271.341544 31.9303214 271.316496 32.01725 271.289976 32.0629244 271.244301 32.1395394 271.129379 32.2191012 271.086651 32.177847 271.045397 32.2014208 270.945208 32.4666268 270.039088 31.6091274 269.813662 29.9692703 269.807769 28.0863077 269.592657 26.520119 269.172748 25.7598618 268.660016 25.2721774 268.095717 24.9907644 267.512264 24.8640548 265.946075 24.8581614 265.845886 24.8581614 265.529112 24.6180026 265.523219 24.6180026 265.753064 24.2039866 265.776638 24.1656791 265.816419 23.840065 265.646982 23.6279002 265.537952 23.5984329 265.275693 23.5173977 265.025221 23.5336048 264.910298 23.542445 264.695187 23.6883083 264.645092 23.7221957 264.553743 23.8135444 264.393147 23.9785615 264.297378 24.0492831 264.038065 24.2422941 263.155519 24.5693815 262.91094 24.6548368 262.672254 24.6872508 262.283285 24.7329252 261.833909 24.607689 260.703836 24.016869 260.363489 23.7546098 260.012827 23.2919726 259.96126 23.2315646 259.828657 22.7718742 259.785929 21.4797316 259.106707 19.2019068 258.896015 18.0276335 259.083133 17.6754989 259.255517 17.3484115 259.140594 16.9609161 258.965264 16.3759895 258.778146 16.0430086 258.754572 16.0032277 258.415698 15.8927252 258.415698 15.8883051 258.050303 15.839684 257.845505 15.5995253 257.525784 14.8289545 257.241425 14.3059093 257.117662 14.0922712 256.74048 13.4130492 256.30289 13.0005065 255.771005 12.8354894 255.632508 12.8001286 254.391934 13.1861507 253.603682 13.436623 253.33995 13.5117647 252.231978 13.8638993 251.915204 14.0642772 251.635265 14.2351877 251.408366 14.4856601 251.169681 14.7434992 250.844067 15.3033786 250.393216 16.088683 250.049922 16.353889 249.937946 16.3214749 249.699261 16.2743272 249.647693 16.2684337 249.566658 16.2301262 249.529824 16.205079 247.727896 15.381467 247.465637 15.2665444 247.325667 15.1472017 246.991213 14.8687354 246.939645 14.7670731 246.852716 14.6108962 246.507949 13.7931777 246.360612 13.5235516 246.25453 13.420416 245.399977 12.6026975 245.23054 12.299184 245.152451 12.022191 245.146558 12.022191 245.019848 11.7864524 244.680974 11.6096484 244.617619 11.5978614 244.436395 11.5846011 243.957551 11.6479559 243.745386 11.6376423 243.368204 11.5610273 243.213501 11.491779 243.17814 11.4740986 243.039643 11.2413067 242.939455 11.0011479 242.821585 10.7300485 242.75823 10.6593269 242.703716 10.5959721 242.622681 10.5576646 242.389889 10.4397952 242.326534 10.3322395 242.308854 10.3012988 242.308854 10.2924586 242.320641 10.2070033 242.338321 10.1127078 242.537225 9.65449079 242.562273 9.38781143 242.314747 8.5096849 242.055435 7.60209103 242.202771 7.22932927 242.423776 7.00832427 242.800958 6.6355625 242.890833 6.48822584 242.951241 6.38656354 242.870206 5.57621187 242.462084 4.96329134 242.459137 4.96329134 241.54123 3.94372161 241.284864 3.14957698 241.239189 2.83132978 241.025551 1.34470282 240.982824 1.23714705 240.638056 0.419428556 240.257927 0.692001388 239.207417 1.19147269 237.103449 1.74251182 235.557888 1.55097415 235.342776 1.58780832 235.071677 1.73514499 230.647156 3.18051768 226.506996 3.70356285 225.622976 4.22513464 225.164759 4.13083918 220.221614 6.2952148 219.427469 7.04073834 218.676052 8.08240857 218.247303 8.52441856 217.755198 8.7130095 217.218893 8.7616306 216.997888 8.85297933 216.367287 9.35981746 216.376127 9.56166869 216.432115 10.1289149 216.852024 11.6302755 217.015568 12.5629166 216.874125 13.3364341 216.582398 13.9331476 216.035779 15.5450107 215.907596 16.2684337 215.920857 17.1082527 216.189009 18.8424053 216.299512 20.7401016 216.439482 21.3029276 217.137858 22.3829054 216.336346 22.9884591 216.203743 24.6386297 216.183116 26.536326 215.717532 27.8977168 215.717532 28.1776565 217.137858 29.3077287 217.137858 29.5552543 216.150702 29.3460362 215.62029 30.4289607 215.400758 32.001043 215.360977 33.2931855 215.609976 33.6261664 216.713528 34.1609985 216.964 34.6766768 217.127544 35.1260537 217.531246 35.4457742 218.048398 35.6181581 218.547869 35.625525 218.547869 35.9275651 218.018931 35.9275651 218.160374 36.2310786 218.295924 36.4108294 218.472728 36.4727108 218.739407 36.4506103 218.739407 36.7305499 218.525769 36.939768 218.270877 36.9633419 215.717532 35.7154003 214.827619 35.834743 213.952439 37.0252233 213.373406 39.1483446 213.153874 39.4916391 212.848887 39.7494782 211.486023 41.4276429 208.1238 44.144531 207.093917 45.2878635 206.475103 45.5073952 205.844502 46.0039197 195.225949 49.4427575 193.005585 49.4118168 190.990019 50.1499735 189.976343 50.8439292 189.083483 51.116502 185.85239 53.0510325 185.593077 53.4282143 182.223488 54.989983 181.962702 55.2404553 181.684236 55.2448754 180.393566 56.2894924 180.009018 56.7462361 178.976188 60.2469552 177.651631 62.6765369 177.570596 62.9712102 177.544075 63.3999599 177.62511 63.7329408 177.990505 63.9848865 178.070067 64.227992 178.289599 64.6066472 178.803804 64.9175276 179.396097 65.112012 179.849894 65.1429527 180.375886 65.1429527 182.223488 65.7735536 184.356923 66.0697003 186.485938 65.7573466 188.315859 64.6066472 187.888583 65.1959939 187.393531 65.642424 186.207471 66.2479777 179.786539 67.7125041 178.070067 68.9471854 177.455673 69.9210807 177.224355 70.1081983 176.635008 70.2643752 175.930739 70.8920294 174.724051 71.4592755 170.592731 72.4493779 169.93561 73.0416713 167.519288 71.5771449 166.225673 71.272158 165.441841 70.7594264 164.989518 70.564942 163.227371 70.564942 162.117926 70.0772576 161.487325 69.9269742 160.547317 70.4500194 159.91377 70.3866646 158.808745 70.0522104 154.388645 69.785531 151.335829 68.6127312 147.935299 68.4344538 147.490342 68.6436719 147.055699 69.1195693 146.865635 69.6632416 147.136734 70.0522104 147.136734 70.3218365 146.631369 70.464753 146.358796 70.3012093 146.159892 70.022743 145.885846 69.785531 145.597066 69.8267853 145.3186 70.006536 145.106435 70.0360033 145.023926 69.6381943 145.076967 69.5159049 145.190417 69.315527 145.308286 69.0090668 145.359854 68.5744236 145.269979 67.7125041 145.02098 67.1113705 143.055508 64.6243276 142.669486 63.5310895 142.22453 62.8312404 141.900389 62.0474093 142.028572 61.1118215 142.192116 60.9099702 142.417541 60.8318818 142.989207 60.8156748 143.093816 60.6447642 143.157171 60.2749492 143.27062 59.8992407 143.924795 59.4336568 143.811346 58.7411745 143.244099 57.5359606 143.120337 56.8714722 143.018674 56.5915326 142.803563 56.47661 139.708019 55.9093638 139.238015 55.9520914 138.047535 56.3277999 137.671827 56.6180532 137.010285 57.5182802 136.605109 57.8984088 136.168993 58.1032067 135.859586 58.0928932 135.326227 57.8836751 135.022713 57.8380008 134.744247 57.923456 134.390639 58.3124248 134.151954 58.3993534 133.964836 58.3124248 133.902955 58.1194138 133.891168 57.923456 133.880854 57.8380008 133.468312 57.8615746 131.544095 57.1985596 129.833516 56.9407205 129.27069 56.7462361 129.141034 56.7329758 128.856674 56.786017 128.740278 56.7462361 128.626829 56.5620652 128.53106 56.078801 128.40435 55.9093638 128.149458 55.7973879 127.426035 55.9093638 127.125468 55.8239085 126.612736 55.4496734 126.368158 55.3627448 125.674202 55.4570402 125.562226 55.7605538 125.613794 56.3484271 125.410469 57.2928551 126.540541 57.7761194 127.37152 57.9367163 127.602839 58.2107625 127.747229 58.6012047 127.9535 59.044688 128.143564 59.6045674 128.152405 60.2646356 128.034535 61.5081571 127.870992 61.9044927 127.141675 62.5748746 126.978131 63.1273871 127.113681 63.3631257 127.78259 64.1778975 128.034535 64.6066472 128.128831 64.9101607 128.143564 65.1193788 128.181872 65.3079697 128.55758 65.9989787 128.663663 66.2479777 128.740278 66.5220239 128.757958 67.0907434 128.659243 68.4344538 128.740278 68.9471854 128.98633 69.2285984 129.291317 69.1976577 129.631665 69.0414809 129.988219 68.9471854 129.911604 69.1033623 129.864457 69.2182848 129.795208 69.492331 130.304993 69.7973179 130.884026 70.4338123 131.361397 70.7358525 131.570615 70.0522104 131.7651 70.0522104 132.102501 70.8610887 132.102501 71.111561 131.570615 71.111561 131.768046 71.7244815 132.08482 72.1620714 132.822977 72.7440513 132.708054 72.8059327 132.637333 72.8589739 132.469369 73.0416713 132.852444 73.5072552 133.278247 74.9526279 133.687843 75.4358922 133.891168 74.6874219 134.442207 74.7036289 135.109642 75.0321897 135.656261 75.19426 135.656261 75.4358922 134.725093 75.1647927 134.256563 75.19426 134.056185 75.5788087 134.095966 76.2860247 134.207942 77.0551221 134.380326 77.7932788 134.599857 78.4238798 134.72804 78.2293954 134.792868 78.1719341 135.111115 78.4238798 134.608697 78.7730677 134.431893 79.0146998 134.246249 79.5200646 134.122486 80.0283761 134.098912 80.4630192 134.235936 80.7562192 134.599857 80.835781 134.487881 81.23359 134.428947 81.6446593 134.406846 82.5861406 134.490828 82.9220682 134.669105 83.3095636 134.851803 83.5349887 134.935785 83.3788118 135.136163 82.7732581 135.623847 82.4918451 136.20288 82.4918451 136.696458 82.7334772 136.696458 82.9751094 136.068804 82.6715958 135.724036 82.8646069 135.557545 83.4495334 135.276132 85.7214648 135.383688 85.9483633 135.688675 86.0249784 135.819805 86.2430366 135.797704 86.5922245 135.656261 87.0371813 135.430836 86.7100939 135.259925 87.1064295 135.050707 88.9834986 134.878323 89.4328755 134.605751 89.7820634 134.246249 89.9529739 134.246249 90.2417538 134.86801 90.4038241 135.181837 91.0108512 135.292339 91.9375988 135.3056 93.0205233 135.522185 93.9457975 136.48282 94.8003502 136.696458 95.7182576 136.830534 95.9584164 137.157622 96.1705812 138.041642 96.4254736 138.181611 96.5816505 138.26854 96.8011821 138.299481 97.0487077 138.368729 97.2299318 138.508699 97.1665771 138.632462 97.017767 138.632462 96.9234716 139.624037 97.017767 140.197177 97.3153871 140.6053 97.9916624 139.659398 97.6321609 136.889469 98.2539217 134.847383 97.9916624 134.43484 98.0859579 133.192792 98.7607598 131.155126 99.079007 129.27069 99.0465929 128.178925 98.7474995 127.592525 98.0859579 127.583685 97.1724705 128.2246 96.1293269 128.040429 95.8508606 127.956447 95.647536 127.960867 95.4766255 128.034535 95.3071883 125.410469 95.8434938 125.569593 96.1293269 124.600118 96.1293269 124.368799 96.2575098 124.321651 96.5271359 124.321651 96.8011821 124.228829 96.9234716 123.838387 97.0413409 123.53782 97.3301208 123.344809 97.6793087 123.263774 97.9916624 123.5113 98.4646131 123.991617 99.625626 124.228829 99.8510511 124.526449 99.8687315 124.796075 99.9586069 125.028867 100.192872 125.215985 100.645196 124.905104 100.409457 124.796075 100.294534 124.68852 100.114784 124.514662 100.114784 124.610431 100.735071 124.987613 101.429027 124.84617 101.734014 125.569593 102.236432 124.765135 102.76095 124.514662 103.030576 124.614851 102.176024 124.457201 101.654452 123.792713 100.645196 123.873748 100.494912 123.982777 100.114784 123.661583 99.9969144 123.436158 99.7184481 123.307975 99.328006 123.263774 98.9080965 122.720102 97.8973669 122.6538 97.7279298 121.420592 97.8516926 120.269893 98.2539217 120.479111 98.8167477 120.619081 99.079007 120.798832 99.3206391 120.470271 98.9729246 120.15497 98.9390372 119.85293 99.1659356 119.565624 99.6108924 119.795469 99.8112702 119.903025 99.8510511 119.903025 100.114784 119.517003 100.334315 119.285684 100.114784 119.147188 99.625626 119.036685 99.0465929 119.049945 99.5298572 118.958597 99.9276662 118.774426 100.223813 118.493013 100.37999 118.442918 99.9659737 118.348623 99.5298572 118.176239 99.1895095 117.884512 99.0465929 117.794637 98.8462151 117.656141 97.9371478 117.532378 97.7279298 116.943031 98.0122895 116.422933 98.5589086 115.939668 98.8904161 115.481451 98.5220744 116.200454 97.7279298 116.331584 97.5083981 116.425879 97.282973 116.540802 97.0796484 116.730866 96.9234716 116.730866 96.6376384 116.390519 96.6936264 116.128259 96.575757 115.945562 96.2855038 115.84832 95.8434938 115.494712 96.543343 114.81991 97.2122514 114.041972 97.7279298 113.365697 97.9916624 113.140272 97.4553569 112.578919 97.3743218 111.431166 97.7279298 111.932111 97.9680885 112.148696 97.9916624 112.148696 98.2539217 111.789194 98.6605709 110.047675 99.7493888 109.586511 99.9055657 109.318359 100.114784 109.119454 100.356416 108.508007 101.319998 108.010009 101.865143 107.585679 102.052261 106.564636 101.996273 106.460027 102.285053 106.471814 102.846406 106.406986 103.2118 106.044538 102.915654 105.82648 102.618034 105.609895 102.392609 105.363842 102.254112 105.058856 102.236432 105.259233 102.052261 105.403623 101.825362 105.511179 101.554263 105.589268 101.197708 104.117374 100.478705 103.49414 100.011648 103.162633 99.8510511 103.032976 99.725815 102.941628 99.4841828 102.999089 99.2882251 103.071284 99.1114211 103.032976 98.9080965 102.932787 98.5972161 102.670528 97.4391499 100.99089 95.9819903 100.8244 95.5930215 100.428064 95.1362778 99.9624803 94.7296286 99.5808783 94.482103 99.5808783 94.2404709 99.6884341 94.1859563 99.9344863 93.9752649 99.9020722 93.7115322 99.9020722 93.4787403 99.9344863 93.1516529 99.4217547 92.9660087 98.1148785 92.8938137 97.4518635 92.6448148 97.4518635 92.3516148 97.1188826 92.3516148 97.1188826 92.1085093 97.5535258 91.7666882 97.7494835 91.6502923 97.9970091 91.5780973 97.9970091 91.3939265 97.9675418 91.3482521 97.9071338 91.3482521 97.8054715 91.3069979 97.9970091 91.0417919 97.73917 90.8325738 97.4680705 90.7559587 97.196971 90.825207 96.9391319 91.0417919 96.5192224 90.9416029 96.015331 91.6900732 95.1622517 93.437486 94.9692407 93.437486 94.9692407 93.1516529 95.5261733 92.4193897 95.6941371 92.1085093 96.0256445 91.090413 96.2186556 90.7780592 95.870941 90.4848593 95.870941 90.2417538 96.0521651 89.8616252 96.0344847 89.4505559 95.8517873 89.0984212 95.5320667 88.8862564 95.2064527 88.9834986 94.7276085 89.5654785 94.4609292 89.4372956 94.2296106 89.736389 93.5975363 90.2800613 92.8240188 91.2451165 92.6148007 91.6193516 92.5249254 92.1085093 92.390849 91.8595103 92.3569616 91.7490078 92.3319143 91.5780973 92.6634218 91.1817617 92.8520128 90.4745457 92.8682198 89.7128151 92.6987826 89.1544092 92.2832932 89.057167 91.5171426 90.017802 91.2755104 89.9529739 91.0957597 89.9529739 90.7951929 90.178399 88.6205037 91.0034843 88.4436997 91.122827 88.1829138 91.4381275 87.9530686 91.5943043 87.6348214 91.6267184 87.0277943 91.5780973 87.1191431 91.3939265 87.1677642 91.267217 87.2370124 91.1596612 87.3814023 91.0417919 87.0233742 91.0108512 86.1319874 90.4848593 85.3172156 90.4362382 85.0770569 90.2417538 84.9149865 90.2417538 84.7764901 90.5703145 84.213664 91.5780973 83.4710872 91.9154983 83.2103013 92.2470058 83.3178571 92.8864469 84.2077706 93.9988387 84.583479 94.2404709 83.2368219 94.482103 83.1307395 94.7532025 83.2368219 95.3484426 83.4946611 96.2486696 83.1248461 96.4519942 82.369009 96.4578877 81.7354613 96.2575098 81.7472482 95.5930215 80.8278674 95.8508606 80.4978333 95.8434938 80.2075801 95.6873169 79.6123399 95.1598517 79.3279802 95.0419823 78.1301331 95.1053371 77.6468688 94.9565271 77.3124146 94.482103 77.3168347 94.7296286 77.302101 94.94032 77.2475864 95.1274376 77.1356106 95.3071883 76.8203101 95.056716 76.6140388 95.5031461 76.5403704 96.2486696 76.6051986 96.9234716 76.4004006 96.7142535 76.3208388 96.5963842 76.2398036 96.3724324 76.0792067 96.3724324 76.2191765 97.1592102 76.3119986 97.4862976 76.4298679 97.7279298 76.2398036 97.9916624 76.4298679 98.2539217 76.2398036 98.5220744 75.9068228 98.0756443 75.1406721 97.5850132 74.8297917 97.1665771 74.8297917 96.9234716 74.943241 96.8704304 75.19666 96.6376384 74.6854018 96.5109289 74.3096933 96.7068867 73.5803768 97.4391499 73.7144532 96.9720927 73.6746723 96.5816505 73.5052351 96.2958174 73.2459226 96.1293269 73.2459226 95.8434938 73.4212532 95.8434938 73.4212532 95.5930215 73.1192131 95.4869391 73.086799 95.2836145 73.1810945 95.0036748 73.2459226 94.6279663 73.086799 94.5056769 72.1703649 94.7782497 71.6266926 95.1185974 71.3113922 95.2349934 70.9563108 95.3071883 71.0550264 95.6637431 71.0402927 95.9539963 70.9342103 96.1838415 70.7632998 96.3724324 70.6027028 96.3724324 70.495147 96.0851259 70.3699109 95.8994817 70.2240476 95.8994817 70.0737642 96.1293269 69.611127 95.8508606 69.0247271 95.8154998 68.4250669 95.9304224 67.9300157 96.1293269 67.4953725 96.4416807 67.0518891 96.8954776 66.9207595 97.2918132 67.4172841 97.4391499 67.4172841 97.7279298 67.0695695 97.7279298 66.484643 97.4936645 66.1693425 97.4391499 65.8967697 97.515765 65.1099919 97.9916624 64.5088583 98.0520704 64.6989226 97.1975178 64.2289186 96.6376384 63.5585368 96.6066977 62.8616343 96.8777972 62.1455782 97.2991801 61.4118416 97.4391499 61.4118416 97.7279298 61.5724385 97.7721308 61.9245732 97.9916624 61.3263863 98.0063961 60.4762537 98.4204121 59.8898538 98.5220744 57.8772349 98.5220744 57.8772349 98.7607598 58.1041334 98.9080965 58.158648 99.0333326 58.1115002 99.1585688 58.0334118 99.3206391 58.7406278 99.6108924 58.2529434 99.625626 57.0727767 99.3206391 56.7397959 99.5549044 56.9224933 100.08237 57.5177335 100.908928 57.1965395 101.00175 56.3419869 100.518486 55.8395688 100.37999 55.0395307 100.463972 54.5562665 100.628989 54.1437238 100.908928 54.3352615 101.197708 54.0567952 101.087206 53.7901158 100.908928 53.3274787 101.58373 52.6909843 102.772737 52.428725 103.893969 53.0858465 104.387547 53.0858465 104.618866 52.6011089 104.775043 52.296122 105.309875 52.1664657 106.034771 52.2047733 106.768508 52.6453099 107.808704 52.6850908 108.299336 52.2047733 108.356797 52.368317 109.155362 52.5937421 109.551697 52.9370365 109.6843 54.2365459 109.697561 54.4678645 109.567904 54.5105921 109.287965 54.5091187 109.008025 54.6004675 108.884262 55.0999388 108.962351 55.9986924 109.335112 56.4495426 109.436775 56.9519607 109.366053 57.7225314 108.977084 58.9837333 108.663257 60.6118035 107.637794 61.4118416 107.2945 63.1548343 107.01014 63.6660925 106.814182 64.4749708 106.345651 64.9346612 106.215995 62.4711922 107.677575 62.180939 107.91184 60.7090457 109.697561 60.7090457 109.940666 61.0656004 109.903832 61.4118416 109.80217 61.7094616 109.645993 61.9245732 109.436775 62.1175842 109.697561 62.0232887 109.777122 61.9952948 109.791856 61.9245732 109.940666 62.5021329 109.83311 63.318378 109.265864 63.7014533 109.436775 63.7972222 109.265864 63.9563458 109.068433 64.0388543 108.884262 64.2289186 108.884262 64.2289186 109.171569 64.0388543 109.171569 64.0388543 109.436775 64.4440301 109.310065 65.0274833 108.884262 65.4635999 108.884262 64.9656019 109.429408 64.7121829 109.613579 64.5913668 109.777122 64.5825266 109.940666 64.362995 110.026121 64.2539658 110.120417 64.0388543 110.463711 65.1394592 110.394463 65.3044763 110.344368 65.4429727 110.734811 65.7641667 110.867414 66.1221948 110.773118 66.3579334 110.463711 66.4684359 110.920455 66.7704761 111.069265 67.577881 111.01475 67.577881 111.302057 65.4665466 111.751434 64.9346612 111.543689 65.3133165 111.536322 65.4768602 111.465601 65.6389305 111.302057 63.9077247 111.428766 62.6921972 111.776481 62.3813168 111.808895 62.0439159 111.748487 61.8479581 111.60557 61.6755742 111.433186 61.4118416 111.302057 59.1148629 111.465601 58.4017535 111.129673 58.7406278 109.697561 58.3104047 109.498656 57.981844 109.809536 57.5177335 111.01475 57.5693013 111.15472 57.6341294 111.428766 57.5751948 111.689552 57.2495807 111.808895 56.9666943 111.751434 56.7530562 111.668925 56.5364713 111.654191 56.2535849 111.808895 56.3272532 112.190497 56.2535849 112.60304 57.80504 112.664921 58.1232872 112.741536 58.2986178 113.137872 58.2013756 113.294049 58.0009977 113.466432 57.8772349 113.915809 57.9361696 114.206063 58.0952932 114.53315 58.3899665 114.97516 58.2573635 115.232999 58.0334118 116.049244 58.6993735 115.822346 59.1561172 115.090083 59.5156187 114.213429 59.8898538 113.528314 60.6088567 113.277842 61.9849812 114.157441 62.6303158 113.915809 62.6921972 114.164808 62.8071198 114.399074 62.9706635 114.586191 63.1725147 114.708481 64.2657528 114.958953 64.6134673 115.311088 64.7431236 116.173007 64.8197386 116.435266 65.1836602 116.912637 65.3044763 117.339913 65.0525306 118.428731 64.9346612 118.708671 64.5530593 118.872215 63.0767459 118.419891 54.7743247 120.280753 54.6255147 120.226239 54.4236635 119.993447 54.3352615 120.000814 54.2453861 120.133417 54.212972 120.280753 54.1938183 120.411883 54.0376414 120.702136 53.9330324 120.943768 53.8019027 121.17656 53.6324656 121.30769 55.5699427 121.860202 56.4421758 121.807161 56.8856592 121.891143 57.6562299 122.645507 57.9936309 122.459863 58.3104047 122.076787 58.6581193 121.860202 58.9159584 122.000172 61.1996768 123.80652 62.4299379 125.400702 62.8189067 126.102025 63.0664323 127.149589 63.4554011 128.130851 63.5423297 128.81744 63.4495076 129.070859 63.2270293 129.126847 62.9824504 129.126847 62.8233268 129.219669 62.7805992 129.446567 62.8380605 129.984346 62.8233268 130.270179 66.605459 130.44993 67.2419534 130.270179 67.633869 130.037387 68.4722146 129.219669 68.4722146 128.941203 67.7679453 128.941203 67.7679453 128.698097 67.8578207 128.580228 67.9300157 128.434364 67.5528338 128.161792 67.6279755 127.696208 67.9845302 127.594545 68.4722146 128.434364 68.7344739 128.179472 68.9687392 128.008561 69.2221582 127.914266 69.5448255 127.890692 69.5448255 127.64906 69.2339452 127.352913 68.8847573 126.831341 68.7315271 126.247888 69.0011532 125.798511 69.0836618 126.421746 69.3326607 127.018459 69.667115 127.467836 69.9779953 127.64906 70.3964315 127.696208 70.7367792 127.828811 71.467569 128.434364 71.5986987 128.098437 71.7946564 128.015928 72.0524956 128.008561 72.363376 127.890692 72.2764473 128.225146 72.1232172 128.403424 71.9169459 128.457938 71.6576333 128.434364 72.1850986 128.580228 72.7626583 127.939313 72.9497759 127.361753 72.7155106 126.585289 73.3976794 126.714945 74.0872149 127.173163 74.5719526 127.734515 74.6559345 128.147058 74.9741817 128.356276 75.1347786 128.426998 75.3602037 128.434364 75.2511746 128.879321 75.3454701 129.113586 75.5266942 129.25945 75.7093916 129.461301 76.2029695 130.380682 76.2398036 130.502971 76.7068609 130.551592 77.2844206 130.433723 77.832513 130.417516 78.2067481 130.793224 79.5534053 130.037387 79.7788304 130.13905 79.9939419 130.659148 80.4889931 130.840372 81.4643618 130.793224 81.5851779 130.862473 81.8813246 131.191033 82.0817025 131.313323 82.2982874 131.344264 82.9627757 131.313323 83.8762631 131.538748 84.2991193 131.546115 84.583479 131.313323 84.6792479 131.599156 84.7926971 131.764173 85.0770569 132.100101 85.4453985 132.876565 86.2130226 133.872561 86.3249984 134.083252 86.6933401 134.192281 88.8076213 133.661869 88.8076213 133.421711 88.6853318 133.228699 88.5247349 133.071049 88.3258304 132.95318 88.8665559 132.82205 89.650387 132.354993 90.3605497 131.686085 90.9204291 131.030436 90.9204291 131.313323 90.5889216 131.578529 90.3561296 132.029379 90.0246221 132.876565 89.8654985 132.925186 89.4249619 132.860358 89.3336132 133.009168 89.3336132 133.367196 89.3070926 133.56168 89.1995368 133.639769 88.9667449 133.661869 88.9667449 133.952123 90.0526161 134.058205 90.5108331 134.220275 90.9204291 134.470748 90.9204291 134.705013 89.8920191 134.332251 89.4308554 134.286577 88.9667449 134.470748 89.6577538 134.495795 90.7922462 134.799308 91.4493677 134.993793 92.2346721 135.877813 92.4247364 136.035463 92.6634218 135.874866 92.744457 135.522731 92.8682198 135.16323 93.2262479 134.993793 92.9580952 134.588617 92.8593796 134.470748 93.2262479 134.370559 93.4280991 134.123033 93.6078499 133.980116 93.9157835 134.209962 93.9526177 134.067045 93.9496709 134.005164 93.9776649 133.974223 94.1087945 133.952123 93.9938719 133.421711 93.8318016 133.019481 93.5857494 132.738068 93.2262479 132.598099 93.6343705 132.51117 93.9791383 132.690921 94.2561312 132.761642 94.4609292 132.354993 94.6215261 132.354993 94.6053191 132.623146 94.6215261 133.421711 94.7393955 133.343622 95.0443824 133.228699 95.1622517 133.141771 95.1622517 133.521899 95.1887723 133.795946 95.2418135 134.005164 95.3390557 134.209962 93.4030519 135.108715 93.0921715 136.184273 93.0332369 136.673431 93.1363725 136.909169 93.3824248 137.055033 93.6712046 137.178796 93.9157835 137.334972 94.2826518 137.765195 94.5670116 138.260247 94.749709 138.921788 94.8130638 139.808755 94.7541291 140.321487 94.5169171 140.968295 94.4609292 141.380837 94.5021834 141.731498 94.8130638 142.827683 94.9692407 142.827683 95.1386778 142.656773 95.67793 142.804109 96.0285913 142.827683 95.456925 142.158775 95.0281753 141.273281 94.8837854 140.181517 95.1622517 138.896741 95.0384889 138.827493 94.926513 138.696363 94.8130638 138.641849 95.0281753 138.238146 95.3169552 138.213099 95.617522 138.409057 95.870941 138.641849 95.7015039 138.799499 95.5320667 138.896741 95.8945149 139.117746 96.3041108 139.085332 97.1188826 138.641849 97.2868464 138.820126 97.4356564 138.876114 97.8054715 138.896741 97.650768 138.394323 97.7362232 137.97294 97.9071338 137.911059 97.9970091 138.500405 98.1222453 138.999877 98.357984 139.101539 98.5023739 138.859907 98.3535639 138.353069 98.6983317 138.672789 98.9753246 139.061758 99.2051698 139.31223 99.4217547 139.161947 99.6884341 139.545022 99.760629 139.677625 99.8284039 139.527342 99.8696582 139.419786 99.9344863 139.161947 99.6663336 138.892321 99.3775537 138.510719 99.1491819 138.089336 99.0548864 137.703314 99.0548864 136.7913 99.0195256 136.526094 98.8972362 136.05167 98.8618754 135.746683 99.0548864 135.746683 99.1226613 136.222581 99.2935718 136.582082 99.5646713 136.783933 99.9344863 136.7913 99.7149547 136.971051 99.6339195 137.264251 99.6604401 137.654693 99.760629 138.120277 99.9344863 138.120277 100.044989 137.956733 100.127497 137.894852 100.464898 137.834444 100.464898 138.120277 100.285148 138.120277 100.285148 138.353069 101.141174 138.145324 101.648012 137.911059 101.873437 137.452842 102.138643 137.187636 103.46762 137.047666 104.000978 136.7913 103.650317 136.557035 104.445935 136.697005 104.755342 136.901803 105.058856 137.334972 104.546124 137.156695 104.000978 137.077133 105.291647 137.903692 105.425724 138.120277 105.726291 138.098176 105.842687 138.020088 105.956136 137.834444 105.589268 137.576605 105.907515 137.482309 106.063692 137.296665 106.025384 137.055033 105.779332 136.7913 105.779332 136.557035 106.358365 137.309925 106.240496 138.020088 105.232713 139.419786 105.425724 139.677625 104.877631 140.04302 104.174836 140.112269 103.525081 139.895684 103.119905 139.419786 102.975515 139.981139 102.947521 140.231611 102.711782 139.995873 102.534978 139.931044 102.386168 140.017973 102.243252 140.231611 102.063501 140.231611 101.683373 139.458094 100.980577 139.458094 100.550354 139.768974 100.99089 139.941358 101.010044 140.128476 100.970263 140.181517 101.049825 140.222771 101.343025 140.268445 101.59055 140.393682 101.696633 140.595533 101.795348 140.635314 102.191684 141.380837 102.243252 141.528174 102.590966 141.855261 102.926894 142.026172 103.312916 142.065953 103.810914 142.017332 105.154624 141.553221 105.589268 141.528174 106.44382 141.831687 106.798902 141.629836 106.835736 140.719296 107.114202 140.92262 107.414769 140.991868 108.06747 140.983028 108.011482 140.726662 107.908347 140.579326 107.75217 140.501237 107.538532 140.464403 107.980542 140.353901 108.36067 140.393682 108.727539 140.337694 109.125348 139.941358 108.92939 140.455563 108.543368 140.881366 108.091044 141.170146 107.699129 141.240867 107.967281 141.481026 108.124932 141.458926 108.275215 141.327796 108.508007 141.240867 109.478956 141.240867 110.318775 140.959454 110.656176 140.912307 111.064298 140.983028 113.034189 141.762439 113.505667 141.769806 114.198149 141.646043 114.615112 141.762439 114.08028 141.724132 113.138798 141.986391 111.526935 142.07332 111.239629 142.329685 111.60797 142.827683 111.392859 143.551106 111.719946 143.752958 112.262145 143.813366 112.679108 144.096252 112.444843 144.641398 112.867699 144.804941 113.50272 144.819675 113.897582 144.897763 113.816547 145.154129 112.926634 145.650654 112.679108 145.940907 112.48757 145.706642 112.599546 145.638867 112.629013 145.6315 112.679108 145.417862 112.247412 145.332407 111.977785 145.223377 111.703739 145.208644 109.65576 146.431538 110.722477 147.131387 111.01715 147.713367 111.064298 148.818392 111.254362 148.818392 111.392859 148.44563 111.382545 148.28798 111.254362 148.019827 111.333924 147.932899 111.416433 147.876911 111.60797 147.776722 111.998413 148.313027 112.514091 148.818392 112.755723 149.331124 112.310766 149.843855 111.72584 149.954358 110.614921 149.418052 110.021154 149.331124 110.021154 149.588963 112.438949 150.857532 113.19184 150.888472 113.221307 150.780917 113.259614 150.548125 113.355383 150.290285 113.561655 150.109061 113.751719 150.063387 113.993351 150.057494 114.425047 150.109061 114.839063 150.352167 115.465244 151.082957 115.84832 151.424778 116.315377 151.619262 116.825162 151.626629 117.312846 151.432145 117.916926 150.825118 118.686024 150.601166 118.954177 150.359534 119.088253 150.119375 119.194335 149.868903 119.371139 149.588963 120.181491 149.098332 123.745565 148.849333 124.72388 149.138113 125.081908 149.503508 125.313227 149.588963 125.918781 149.652318 126.438879 149.823228 127.328793 150.365427 128.23786 151.121264 129.018744 152.048012 129.465174 152.413407 130.527472 152.629992 131.044623 152.980653 129.653765 152.936452 129.061472 152.660932 128.492752 152.048012 128.230493 151.877101 127.154935 151.65757 126.095585 150.888472 126.095585 150.601166 126.625997 150.601166 126.396152 150.359534 126.144206 150.194517 125.868686 150.109061 125.569593 150.109061 125.741977 150.365427 125.350061 150.383108 124.028451 150.025079 123.83544 149.843855 123.632116 149.588963 123.439105 149.628744 123.263774 149.712726 123.08697 149.843855 120.713376 150.101695 120.093089 150.365427 119.864717 150.686621 119.6997 151.146311 119.599511 151.626629 119.565624 152.048012 119.639292 152.622625 119.913338 153.214918 119.903025 153.730597 119.824936 154.287529 119.746848 154.601356 119.549417 154.731013 118.706651 154.847409 118.407558 155.06694 118.127618 155.329199 117.790217 155.561991 118.702231 156.070303 121.676958 156.588928 123.232833 157.461161 123.632116 157.857497 123.907635 158.293613 124.194942 158.965468 124.243563 159.603436 123.792713 159.943784 123.484779 160.614166 123.047189 161.975556 122.733362 162.541329 121.74768 163.15867 121.371971 163.555006 121.516361 164.082471 120.857766 164.565735 120.683909 164.95323 120.622028 165.762109 120.651495 166.41039 120.751684 167.126446 120.943222 167.715793 121.237895 167.957425 121.908277 168.19169 122.706841 168.766303 124.144847 170.269137 124.908051 171.830906 125.127583 172.059278 125.554859 172.104952 125.989502 172.250816 126.32985 172.524862 126.589163 173.48255 126.900043 173.847945 127.296379 174.191239 127.682401 174.643563 127.842998 175.075259 127.960867 175.580624 128.165665 176.00348 128.578208 176.174391 128.466232 176.827092 129.042318 179.566081 129.282477 179.909375 129.527056 180.039032 129.634611 179.876961 129.599251 179.549874 129.451914 178.936953 129.4416 178.478736 129.689126 178.880966 129.977906 179.698684 130.166497 180.000724 130.493584 180.202575 131.218481 180.404427 132.08482 181.169104 133.460945 181.410736 133.880854 181.814439 133.658376 182.274129 134.358225 182.499554 136.080591 182.576169 136.787807 182.717612 137.38452 183.128682 137.792643 183.813797 137.945873 184.749385 138.224339 185.549423 138.878514 185.577417 140.251692 185.145721 140.594986 185.284217 141.179913 185.796949 141.972584 186.271373 142.230423 186.319994 142.648859 186.434916 143.114443 187.143606 143.608021 187.744739 144.301977 187.934804 144.271036 186.76053 145.227251 186.185917 146.380897 186.265479 146.943723 187.065517 147.012971 187.587089 147.130841 187.905336 147.151468 188.202956 146.943723 188.67738 145.168316 189.782405 144.883956 190.271563 145.023926 190.987619 144.782294 191.14969 144.528875 191.463517 144.360911 191.825965 144.390379 192.139792 144.637904 192.394685 144.857436 192.441832 145.090228 192.427099 145.359854 192.505187 145.747349 192.481613 145.885846 192.505187 145.919733 192.614216 145.885846 192.792494 145.877006 192.961931 145.983088 193.034126 146.181992 193.08864 146.784599 193.549804 146.476666 193.851844 146.476666 194.006548 146.631369 194.13031 146.784599 194.299748 146.871528 194.363102 147.201562 194.473605 147.295858 194.534013 147.331218 194.67693 147.323852 195.026117 147.509496 195.522642 147.538963 195.89393 147.627365 196.198917 148.117996 196.386035 148.288907 196.518638 148.433297 196.696915 148.546746 196.861932 148.546746 197.085884 148.262386 197.716485 147.916145 198.018525 147.490342 197.989058 146.943723 197.614823 147.310591 198.837717 147.592004 199.326875 148.016334 199.615655 147.886678 199.724684 147.627365 199.995783 147.490342 200.122493 147.646519 200.31403 147.836583 200.642591 147.98392 201.02272 148.016334 201.405795 147.908778 201.831598 147.742288 201.917053 147.538963 201.871379 147.295858 201.908213 146.895102 202.149845 146.609269 202.415051 146.485506 202.578595 146.352903 202.798127 146.171679 203.013238 145.885846 203.169415 146.106851 203.55249 146.279235 204.090269 146.391211 204.642782 146.430991 205.071531 146.568015 205.401565 147.232503 206.197183 149.554529 208.072779 150.130615 208.731374 148.324268 207.885662 148.016334 207.598355 147.723134 207.402397 146.08033 205.4605 145.576439 205.436926 143.862913 205.962918 143.86586 206.438816 143.42385 209.00542 143.887961 209.192538 144.792608 208.990687 145.269979 209.361975 145.586752 209.775991 145.950674 210.147279 146.375003 210.415432 146.862688 210.506781 147.637679 210.826501 149.02117 212.211466 149.875723 212.52382 150.03632 212.679997 150.139455 213.371006 150.224911 213.525709 153.881807 216.185136 155.076707 217.555367 155.652793 218.476221 156.171418 219.503158 157.028918 221.813397 157.366319 223.229302 158.350528 230.216007 158.676142 231.3726 159.144672 232.322921 160.064053 233.030137 161.183812 233.398479 162.213695 233.91121 162.857556 235.056016 162.278523 234.572752 161.683283 234.267765 161.018795 234.118955 160.217283 234.080648 160.825784 234.454883 161.40187 235.045703 161.692123 235.833954 161.447544 236.815216 161.608141 237.26312 161.702437 238.291529 161.801152 238.798368 161.457858 238.524321 161.241273 237.939395 161.132244 237.186504 161.09983 236.432141 161.173498 235.848688 161.133717 235.514233 160.923026 235.056016 160.696127 234.798177 159.866622 234.309019 158.879466 233.341017 157.999866 232.199158 157.127633 230.080457 157.024498 229.669388 156.541233 226.285065 156.197939 224.923674 156.134584 224.192884 155.834017 223.084912 155.109121 222.015248 151.98853 218.539576 151.586301 218.412866 150.501904 217.796999 148.769224 216.451815 148.546746 216.164509 148.274173 215.726919 148.193138 215.533908 148.194611 215.330583 148.252073 215.137572 148.321321 215.019703 148.337528 214.599794 148.353735 214.328694 148.288907 214.16515 148.016334 214.026654 147.602318 214.187251 147.232503 214.754497 146.35143 216.544638 146.189359 217.082416 145.726722 224.808751 144.654111 230.578455 143.083502 248.481333 143.254413 248.077631 143.482785 247.208344 143.774511 245.612688 144.935524 243.835808 145.104961 243.493987 145.165369 243.433579 145.20073 243.292136 145.249351 243.137432 145.359854 243.019563 145.536658 243.004829 145.658947 243.088811 145.763556 243.200787 145.885846 243.270035 146.171679 243.396745 148.11505 245.220773 148.369942 245.743818 148.016334 245.743818 148.654302 246.411253 148.648408 246.966712 148.12831 247.338001 147.216296 247.470604 145.635373 247.083108 144.987092 247.105209 144.475834 247.74465 144.01467 249.402187 143.951315 249.836831 143.849653 250.069623 143.166011 251.059725 143.140964 251.361765 143.361969 252.388702 143.42385 252.91764 143.244099 255.148317 142.538357 260.199018 140.873452 270.337254 139.967332 274.966572 139.355885 277.004238 138.299481 282.837297 137.67772 284.863176 137.500916 285.974095 137.088373 287.297178 136.889469 287.709721 135.528078 288.769071 135.3056 289.047538 135.190677 289.445347 134.632271 290.541531 134.406846 290.852412 133.923582 291.203073 133.350442 291.513953 132.746362 291.732012 130.46559 292.106247 129.988219 292.299258 129.795208 292.567411 129.388559 292.26979 129.241223 293.256946 129.222069 293.996576 129.226489 294.431219 129.967592 294.790721 130.288786 295.222417 130.374242 295.91932 130.508318 296.199259 130.785311 296.152112 131.088824 296.003302 131.64281 295.934053 132.165855 295.707155 132.401594 295.738096 132.892225 295.970888 133.145644 296.152112 133.141224 296.324496 133.071976 296.53224 133.114704 296.843121 133.301821 297.450148 133.428531 297.606325 133.742358 297.752188 134.020824 297.793442 134.347911 297.752188 134.626378 297.591591 134.776661 297.280711 134.981459 296.682524 135.366008 296.448258 135.875793 296.462992 136.680251 296.704624 137.755809 297.26303 138.041642 297.217356 138.327475 297.117167 138.638355 297.117167 139.376512 297.887738 139.473754 299.17104 139.195288 300.578105 138.803372 301.69197 138.476285 302.135454 137.413987 303.277313 137.200349 303.57346 137.52449 304.33961 137.994494 304.865602 138.56174 305.203003 139.195288 305.3636 139.902504 305.424008 140.34304 305.278145 140.562572 304.805194 140.621507 303.88434 140.804204 303.177124 141.246214 302.679126 141.825247 302.452227 142.407227 302.606931 141.865028 303.075462 141.65581 303.536625 141.773679 304.011049 142.208323 304.514941 142.696007 304.805194 144.190001 305.073347 145.076967 305.565451 145.919733 306.250567 146.887735 306.166585 147.110213 306.250567 147.538963 306.52314 147.731974 306.68521 148.621888 306.797186 149.050637 306.918002 149.367411 307.283397 150.263218 307.962619 151.2489 308.282339 153.30572 308.454723 155.294765 308.092275 155.982828 308.336854 156.469039 309.580375 156.455778 309.829374 156.370323 309.991445 156.342329 310.178562 156.485246 310.498283 156.748978 310.756122 157.002397 310.785589 157.254343 310.747282 157.515129 310.79443 158.399149 311.338102 158.857366 311.727071 159.860729 313.067834 159.897563 313.222538 159.847468 313.369874 159.841575 313.499531 160.011012 313.579093 160.432395 313.579093 160.544371 313.620347 160.694654 313.826618 160.659293 314.05499 160.654873 314.261261 160.903872 314.426278 161.10425 314.396811 161.538893 314.100664 161.764318 314.022576 161.809993 313.191597 162.467114 313.204857 163.860919 313.861979 164.646223 313.795677 165.270931 313.424389 166.510032 312.443127 166.733984 312.675919 166.935835 312.59783 167.115586 312.328204 167.254082 311.98491 167.651891 312.356198 169.20924 313.300626 169.518647 313.950381 170.209656 314.03731 170.95518 313.826618 171.41929 313.632134 171.361829 314.242108 171.512112 314.846188 171.822992 315.360393 172.247322 315.709581 172.407919 315.905538 172.43886 316.154537 172.509581 316.379963 172.782154 316.503725 173.110715 316.598021 173.288992 316.754198 173.411282 316.932475 173.560092 317.087179 174.579662 317.493828 175.469575 317.406899 177.461567 316.676109 179.042489 316.434477 179.5287 316.105916 179.947136 316.045508 181.318841 316.402063 181.732857 316.606861 182.285369 317.588123 182.686125 318.068441 183.067727 318.005086 183.794097 316.98699 184.249367 316.528773 184.717898 316.356389 185.43248 316.960469 185.488468 317.078338 185.481101 317.228622 185.495835 317.367118 185.625491 317.493828 186.139696 317.59107 186.643588 317.563076 187.62485 317.30671 188.0536 317.484988 191.271432 317.392165 192.183446 317.512982 192.522321 317.392165 192.746272 317.01793 192.772793 316.449211 192.595989 315.921746 192.289529 315.531303 191.92266 315.401647 192.080311 315.049512 192.177553 314.900702 192.370564 314.753366 192.083257 314.35703 192.445706 313.378715 192.388244 312.630244 192.512007 312.123406 193.104301 311.890614 193.81299 311.8361 194.26826 311.881774 195.158174 312.232435 195.609024 312.334098 196.107022 312.28695 196.551979 312.365038 197.665844 313.019213 198.430521 313.321253 198.654473 313.493637 199.067015 313.895866 199.341062 314.013736 199.588587 313.889973 199.830219 313.689595 200.093952 313.602666 200.313484 313.689595 200.74076 314.03731 200.936718 314.155179 203.136454 314.302516 203.674233 314.474899 204.13245 314.888915 204.384396 315.383967 204.57888 315.930586 204.842613 316.410903 205.284623 316.736517 205.570456 316.767458 206.432375 316.486045 209.607481 316.503725 210.215981 316.667269 210.102532 317.165267 210.232188 317.30671 210.476767 317.322917 210.693352 317.439313 211.147149 318.255558 211.643673 318.940674 212.078316 320.138521 212.451078 320.627679 213.022744 320.393413 213.420553 319.018762 214.235325 319.055596 214.992636 318.76829 215.386025 318.735876 216.78867 319.700931 217.067136 319.833534 220.000609 320.123787 219.778131 320.831003 220.19362 321.093262 220.79328 321.28038 221.113001 321.74007 220.467666 321.800478 219.994716 322.264589 219.708882 322.986539 219.614587 323.858772 219.691202 323.904446 219.74277 323.979588 219.761924 324.066516 219.748663 324.178492 220.224561 324.371503 221.823164 324.586615 222.365362 324.813513 223.812209 325.809509 224.419236 325.948006 224.901026 325.973053 225.303256 326.152804 225.653917 326.73331 225.994265 328.043133 226.23737 328.577965 226.745682 329.015555 227.062455 329.226246 227.41017 329.280761 228.082025 329.199726 228.509301 329.093643 228.805448 328.897686 229.240091 328.439469 229.855959 327.965045 229.979721 327.760247 230.172732 327.248988 230.296495 327.070711 230.709038 326.8777 231.926039 327.023563 233.518748 326.525565 234.326153 326.44011 235.049576 326.845286 235.35751 327.101652 236.85887 327.810341 237.661855 327.988618 238.072924 328.001879 238.262989 328.563231 238.666691 329.106904 239.164689 329.504713 239.64206 329.631422 240.168052 329.924622 240.453885 330.020391 240.720564 330.011551 240.895895 329.846534 241.109533 329.280761 241.314331 329.099537 241.807909 329.084803 242.996916 329.489979 243.567109 329.596062 244.255171 329.562174 244.246331 329.404524 243.92661 329.046496 243.690872 328.384954 243.894196 328.079967 244.983014 327.225415 245.439758 326.983782 245.97017 326.946948 246.976479 327.101652 247.515731 327.016196 247.932694 326.759831 248.706212 325.996627 249.123174 325.754995 249.538664 325.706374 249.980674 325.724054 250.409424 325.654806 251.261029 324.991791 252.090535 325.311511 252.531072 325.024205 252.806591 325.078719 253.560955 325.102293 253.733339 325.147968 253.899829 325.536936 254.10168 325.864024 254.352153 326.12923 254.660086 326.322241 255.189025 326.494625 255.85204 326.563873 256.528315 326.531459 258.280148 326.229419 258.318456 326.017254 258.309616 325.156808 257.47127 323.997268 255.676709 322.17766 255.411503 321.482231 255.11241 318.837538 255.12125 318.420575 255.052002 318.224618 254.907612 318.131796 254.559897 318.152423 254.444975 318.100855 254.268171 317.832702 254.156195 317.570443 254.188609 317.268403 254.444975 316.908901 254.775009 317.398059 254.928239 317.530662 255.013694 317.28019 255.312788 315.507729 255.345202 314.877129 255.308368 314.258315 255.191972 313.648341 255.037268 313.361034 254.749962 313.231378 254.022119 312.995639 253.615469 312.949965 253.388571 312.826202 253.219134 312.603724 253.05117 312.117513 252.858159 311.881774 253.877729 310.809163 254.179769 310.644146 254.279958 310.457029 254.251964 309.65699 254.358046 309.469873 254.584945 309.524387 254.95034 309.711505 255.128617 309.689405 255.538213 309.291596 255.42329 308.955668 254.708707 308.367795 254.418454 307.85359 254.352153 307.301077 254.568738 306.894428 255.128617 306.811919 254.786796 307.4381 254.698394 307.751927 254.813316 308.031867 255.106516 308.140896 255.258273 307.859483 255.379089 307.479355 255.580941 307.292237 255.681129 307.090386 255.765111 306.641009 255.837306 305.728995 255.946335 305.3636 256.441387 304.816981 256.559256 304.391178 256.363298 304.062617 255.931602 303.798885 255.502852 303.31562 255.308368 302.344672 255.43213 302.089779 255.741537 301.98517 256.462014 301.98517 256.571043 302.10304 256.332358 302.359405 255.837306 302.7248 255.837306 302.951699 256.190914 303.150603 256.350038 303.380448 256.473801 303.510105 256.71838 303.449697 257.440329 302.344672 257.581772 301.924762 257.905913 301.559367 258.509993 301.021588 258.703004 300.687134 258.95053 300.016752 259.122914 299.699979 259.548717 299.1622 263.106897 296.448258 264.032172 295.982674 264.653932 295.864805 265.685289 296.377537 266.226015 296.135905 268.349136 293.530992 269.191902 292.822303 272.101801 291.242854 277.243851 287.001031 277.243851 286.737299 276.368671 287.033445 275.586313 287.686147 274.230816 289.183087 272.910679 290.33968 272.067913 290.792004 271.192734 290.852412 271.192734 290.626987 273.367423 289.717919 273.707771 289.28917 273.777019 288.745497 273.967083 288.408096 275.640828 287.001031 276.343624 286.581122 277.940753 286.089017 279.103239 285.252145 279.867917 284.986939 281.310343 284.777721 281.065764 285.312553 280.751937 285.654374 280.323187 285.865066 279.725 286.013876 278.510946 286.121431 277.937806 286.302656 277.597459 286.737299 278.469692 286.330649 280.032934 286.164159 281.525454 286.318863 282.188469 286.868428 282.231197 286.995138 282.740982 288.86926 282.880951 289.183087 283.073962 289.398199 283.620581 289.678139 284.248236 289.813688 292.230936 290.074474 293.359535 290.307266 294.044651 290.852412 294.081485 291.475646 293.888474 292.204962 293.652735 292.814936 293.595274 293.069829 294.292176 293.419016 295.341213 293.715163 299.132186 293.887547 300.041253 293.530992 299.419492 292.85177 298.637134 292.290418 297.934339 291.562574 297.574837 290.370621 297.574837 287.82759 297.465808 287.453355 296.699657 286.233407 296.699657 286.013876 297.143141 286.279082 297.505589 286.800653 297.773742 287.413574 297.934339 287.951353 297.994747 288.555433 297.934339 290.626987 298.332148 291.562574 299.201434 292.386186 300.274045 292.993214 301.278881 293.28936 301.08587 292.713274 300.835398 292.495216 300.711635 292.308098 300.929693 291.81894 301.171325 291.599409 301.801926 291.459439 302.084812 291.234014 302.725727 290.937867 304.141632 291.755586 304.63963 291.574361 305.286438 291.755586 305.899359 291.320942 306.182245 290.526798 305.880205 289.639831 305.503023 289.328951 305.189196 289.156567 304.953457 288.863367 304.812014 288.192985 304.860635 287.927779 304.984398 287.438621 305.155309 286.970091 305.327692 286.737299 305.482396 286.837488 305.853684 287.344326 305.962714 287.462195 306.571214 287.438621 306.774539 287.462195 307.299057 287.646366 307.433133 287.82759 307.450814 288.12963 307.637931 288.673302 308.190444 289.321584 308.849039 289.436506 309.572462 289.174247 310.317985 288.673302 310.415228 289.513121 310.077827 290.307266 309.551835 290.961441 309.05973 291.357777 308.352514 291.574361 306.049642 291.574361 305.246657 292.028158 304.898943 292.745688 305.031546 293.545726 305.713715 294.255889 306.351682 294.431219 307.978279 294.403225 308.352514 294.255889 309.485533 294.422379 312.927318 293.637075 313.649267 294.135073 313.649267 295.964994 313.761243 296.172739 313.938047 296.368697 314.110431 296.480672 314.187046 296.448258 314.161999 296.713464 314.101591 296.937416 313.885006 297.519396 313.694942 297.878897 313.618327 298.235452 313.814284 298.594954 314.141372 298.718716 314.886895 298.673042 315.23461 298.86016 315.632419 298.71135 316.296907 298.664202 316.918668 298.75113 317.192714 298.966242 317.332684 299.131259 317.649458 299.053171 317.983912 298.866053 318.425922 298.524232 318.651347 298.639155 319.283422 299.499601 319.482326 299.683772 319.835934 299.820795 319.96559 299.940137 320.10998 300.025593 320.276471 300.0639 320.435594 299.985812 320.507789 299.820795 320.559357 299.651357 320.644812 299.576216 321.975262 299.636624 322.474734 299.898883 322.32003 300.526537 323.283612 301.061369 323.778663 301.226386 324.35475 301.286794 324.587541 301.395824 324.650896 301.879088 324.886635 301.98517 325.353692 302.020531 325.523129 302.094199 325.677833 302.226802 324.843907 302.649659 324.650896 302.966432 324.80118 303.449697 325.048705 303.627974 326.30254 304.176066 326.900727 304.209954 327.154146 304.040517 327.263175 303.557252 327.437033 303.286153 327.856942 303.294993 328.671714 303.449697 328.671714 303.208065 328.247384 303.020947 327.690452 302.399186 327.263175 302.226802 328.011646 301.846674 328.427135 301.728804 328.852938 301.743538 328.78369 301.915922 328.736542 302.259216 328.671714 302.468435 329.294948 302.210595 330.089093 302.198808 330.843456 302.382979 331.326721 302.7248 331.499105 302.839723 333.364387 302.951699 333.600125 303.107876 333.600125 303.46443 333.445422 304.04641 333.309872 304.158386 332.397858 304.176066 332.397858 304.391178 332.881122 304.491367 334.604961 304.506101 335.045498 304.391178 335.045498 304.176066 334.828913 304.176066 334.656529 304.109765 334.327969 303.931488 334.578441 303.199224 334.647689 302.595144 334.828913 302.10304 335.396159 301.743538 335.683466 301.69197 337.433825 301.743538 337.643043 301.786266 338.034959 301.948336 338.319319 301.98517 338.593365 302.135454 338.717128 302.468435 338.771642 302.796995 338.858571 302.951699 339.792685 302.984113 340.024004 302.779315 339.643875 302.226802 339.779425 301.96307 339.767638 301.743538 339.782372 301.468019 339.99159 301.021588 340.233222 300.843311 341.053887 300.779956 341.565146 300.500017 342.101451 300.296692 342.415278 300.281958 343.044406 300.354153 343.339079 300.296692 343.726574 299.994652 344.133224 299.576216 344.625328 299.268282 345.292763 299.343424 345.562389 299.560009 345.672892 299.853209 345.7333 300.128728 345.836436 300.296692 346.109008 300.362994 346.607006 300.131675 346.886946 300.0639 346.714562 299.576216 347.784226 298.718716 347.946297 298.491818 347.890309 298.391629 347.759179 298.259026 347.64131 298.095482 347.594162 297.893631 347.648676 297.559177 347.735605 297.426574 347.835794 297.344065 347.946297 297.171681 348.179088 296.577915 348.124574 296.377537 345.643424 296.5013 345.488721 296.448258 345.543236 296.152112 345.936624 295.825024 346.62174 295.456683 347.191933 295.366807 347.430618 295.101601 347.551434 294.722946 347.775386 294.255889 348.193822 293.896387 348.590158 293.746104 348.886304 293.530992 349.082262 292.480482 349.26938 291.833674 349.547846 291.220753 349.8823 290.852412 350.389138 291.248747 351.04184 291.421131 352.366397 291.357777 352.370817 291.220753 352.494579 290.955547 352.650756 290.792004 352.722951 290.986488 352.786306 291.08815 352.94101 291.142665 353.11634 291.148558 353.263677 291.116144 353.393333 290.955547 353.444901 290.472283 353.522989 290.370621 353.710107 290.370621 353.813243 290.34852 353.873651 290.279272 354.806292 288.649729 354.851966 288.555433 354.869647 288.534806 354.900587 287.960193 354.851966 287.951353 355.189367 287.392947 355.585703 287.07028 355.996772 286.831594 356.418155 286.495667 357.010448 286.744665 357.641049 286.544288 358.299644 286.192153 358.98476 286.013876 359.061375 286.131745 359.111469 286.379271 359.211658 286.566388 359.44445 286.495667 359.568213 286.35717 359.594733 286.206887 359.577053 286.019769 359.609467 285.750143 359.600627 284.069032 359.691976 283.803826 359.887933 283.657962 360.083891 283.320561 360.34615 282.987581 360.769007 282.837297 361.140295 282.809303 361.430548 282.704694 361.67218 282.552937 361.910866 282.351086 362.408864 281.608509 362.710904 281.343303 363.061565 281.493587 363.309091 281.539261 364.564399 281.375717 364.452423 281.711645 364.392015 281.841301 364.890013 281.772053 365.001989 281.439072 365.029983 281.004429 365.268668 280.653768 365.700365 280.544739 365.769613 280.077681 366.149742 279.651878 366.64774 279.44708 367.231193 279.790375 367.410944 279.525169 367.659943 279.419086 367.925149 279.452974 368.103426 279.507488 368.250763 279.516329 368.462927 279.419086 368.477661 279.292377 368.43788 278.840053 368.462927 278.70745 368.56459 278.661776 368.670672 278.67651 368.782648 278.67651 369.125942 278.437824 368.610264 276.716932 368.477661 275.816705 368.881363 275.074128 370.002595 273.848287 370.524167 273.012888 371.853144 271.887236 372.42923 271.249268 372.629608 270.835252 372.843246 270.035214 373.00679 269.597624 373.292623 269.277904 373.666858 268.990597 373.957112 268.610469 373.999839 267.988708 373.594663 267.116475 373.027417 266.549229 372.707697 265.878847 373.067198 264.710467 372.264213 264.573444 371.206336 265.26298 370.460813 265.318967 365.980305 266.618477 364.935688 266.584589 364.688162 266.533022 364.449477 266.30023 364.308033 265.996716 364.135649 265.738877 363.792355 265.606274 363.121973 265.488405 362.632815 265.2895 359.896774 263.599549 358.860997 263.217947 357.341956 262.409068 357.016342 262.316246 356.667154 262.34866 356.362167 262.445903 356.05276 262.503364 355.709466 262.354554 355.47078 262.083454 355.352911 261.772574 355.265982 261.427806 355.102438 261.080092 354.860806 260.797205 354.356915 260.43181 354.124123 260.193125 353.976786 259.916132 353.671799 259.188289 353.471422 258.837628 352.901229 258.167246 352.7922 258.006649 352.699377 257.672195 352.708218 257.493917 352.768626 257.275859 352.986684 256.153153 353.166435 255.842273 354.028354 255.370796 353.357972 254.800603 352.572668 253.974044 351.998055 252.964788 351.911126 251.842083 352.192539 251.361765 353.508256 250.348089 354.386382 248.817261 354.754724 248.544688 354.45563 247.772644 354.641275 247.044801 355.120119 246.461348 355.709466 246.132787 356.18389 246.123947 357.119477 246.406833 357.577694 246.397993 357.427411 245.922095 356.642107 244.444309 356.544864 244.133428 356.403421 243.240568 356.114641 242.452317 356.129375 242.406643 356.264925 241.839396 356.307652 241.812876 356.298812 241.637545 356.334173 241.54325 356.340066 241.42538 356.279658 241.214689 356.176523 241.036412 355.709466 240.52368 354.42027 239.994741 353.967946 239.95496 352.699377 240.2128 352.21022 240.087563 350.434813 239.05326 349.586154 238.319523 349.136777 237.56074 349.182451 235.528967 349.018907 234.487297 348.339685 233.986352 347.439458 233.91121 347.165412 233.678418 346.854532 233.14064 346.785284 232.806185 346.817698 232.518879 346.777917 232.259566 346.356534 231.894171 345.905684 231.203162 346.213617 230.789146 346.679201 230.400178 347.572061 229.888919 347.804853 229.847665 348.270437 229.865346 348.475235 229.828511 348.690347 229.701802 349.160351 229.343774 349.353362 229.240638 350.256535 229.390921 351.205384 229.90218 352.132131 230.23074 352.970477 229.828511 353.027938 229.60014 352.868815 229.436596 352.753892 229.234745 352.883548 228.929758 353.088346 228.838409 353.695373 228.829569 353.928165 228.775054 354.308294 228.43176 354.754724 227.646455 355.087705 227.326735 356.011506 226.906825 356.920573 226.656353 357.125371 226.743282 357.445091 227.13225 357.586535 227.189712 357.755972 227.011434 358.248076 226.112681 358.946452 225.523334 358.946452 224.947248 358.673879 224.216458 358.541276 223.160054 358.673879 222.939049 359.507805 221.943053 360.04411 220.988311 360.268062 220.435799 360.299003 219.977582 360.095678 219.822878 358.9936 219.338141 358.650305 219.083248 358.441087 218.667759 358.259863 218.211015 358.015284 217.804366 356.886685 216.964547 355.709466 216.303005 355.516454 215.768173 355.376485 214.247659 355.271876 213.978033 354.987516 213.54339 354.938895 213.244296 355.009616 212.942256 355.307236 212.293975 355.367644 212.087703 355.211468 211.542558 354.891747 211.315659 354.054875 211.106441 353.710107 210.844182 353.12518 210.256309 352.777466 210.135493 352.107084 209.992576 351.407235 209.471004 350.88419 208.69454 350.598357 207.163712 350.529108 206.50659 350.552682 205.847996 350.685285 205.240968 351.019739 204.70319 351.416075 204.461558 352.179279 204.355475 352.179279 204.29212 352.252947 204.127103 352.366397 203.957666 352.487213 203.857477 352.581508 203.870737 352.7922 204.012181 352.883548 204.029861 353.064772 203.9945 353.704213 204.00334 354.256726 203.839797 354.840179 203.546597 355.358804 203.100167 355.709466 202.51082 355.873009 202.009875 356.083701 201.569339 356.357747 201.227518 356.723142 201.05366 356.544864 200.75162 356.403421 200.377385 356.222197 199.70111 355.928997 198.939379 355.833228 198.54157 355.709466 198.456115 353.967946 196.487697 353.375653 196.231331 353.160541 196.316787 352.979317 196.500957 352.777466 196.651241 352.535834 196.6203 352.308935 196.44939 352.297148 196.334467 352.348716 196.176817 352.331036 195.888037 352.370817 195.857096 352.366397 195.471074 352.316302 195.102732 352.247054 195.135147 352.366397 194.948029 352.572668 194.688716 352.753892 194.413197 352.777466 194.12147 352.388497 193.738395 350.331677 193.290491 350.109199 192.668731 350.347884 191.394269 350.791368 190.060872 351.709275 188.288412 351.119928 187.276209 350.207914 186.311154 349.712863 185.456601 349.852833 185.027851 350.535002 184.224866 350.716226 183.604579 350.658765 182.89589 350.417132 182.530495 350.029637 182.334537 346.18415 181.341488 344.469151 181.284027 342.817507 181.612587 340.616297 183.119841 339.779425 183.339373 338.926346 183.379154 338.132201 183.63552 337.301222 184.360416 336.564539 185.329891 336.01792 186.069521 335.879424 186.57636 335.985506 186.950595 336.227138 187.581196 336.235978 187.727059 336.483504 188.339979 336.592533 188.504997 336.866579 188.644966 337.292382 188.444589 337.482447 188.521204 337.612103 189.384596 336.944668 190.084446 335.29597 191.183577 333.980254 192.720299 333.140435 193.151995 332.259362 192.760079 331.085088 192.801334 329.916709 193.0798 329.294948 193.454035 329.638242 192.64221 329.8342 192.270922 329.916709 191.952675 329.462912 191.382482 329.197706 190.866803 329.289055 190.426267 329.916709 190.029931 331.465217 189.269674 331.504998 189.253467 331.600767 189.253467 331.802618 189.321242 331.957322 189.338922 332.104658 189.321242 332.673378 189.142964 332.780934 188.901332 332.760306 188.553618 332.77504 188.155809 332.953317 187.097931 333.035826 186.809152 333.880065 184.942396 333.841758 184.52838 333.52793 183.964081 333.146328 183.557431 331.75547 182.699932 332.050144 182.421466 332.095818 182.17394 332.050144 181.923468 332.050144 181.636161 332.02657 181.518292 331.966162 181.370955 331.911647 181.192678 331.911647 180.99672 332.014783 180.772768 332.307983 180.453048 333.20379 178.910433 334.112857 177.768574 333.48815 177.068725 333.413008 176.570727 333.762196 176.118403 337.223134 172.941825 339.076629 171.932568 339.332995 171.715983 340.00927 170.948359 340.86677 170.493089 341.139343 170.291238 341.422229 169.922896 341.525365 169.612016 341.519471 168.985835 341.323513 168.775144 341.192384 168.588026 341.111349 168.378808 341.154076 168.19169 341.557779 166.971743 341.739003 166.652022 341.884866 166.286627 341.923174 165.762109 341.848032 165.351039 341.497371 164.698338 341.392762 164.355044 341.77289 163.03196 343.028199 162.308537 345.799601 161.437778 347.524914 160.123535 348.106894 159.276349 347.804853 158.573553 348.146674 157.975366 348.388307 157.733734 349.042481 157.500942 349.136777 157.25931 349.229599 157.197428 349.603834 157.001471 349.57142 156.356136 350.343464 156.093877 352.028996 154.527688 352.52994 153.720283 353.275464 152.948239 355.02435 151.65757 354.924161 150.724929 355.087705 149.945518 355.568022 149.4431 355.805234 149.418052 355.942257 149.365011 356.316493 148.849333 356.590539 148.694629 356.851325 148.625381 357.09443 148.467731 357.297755 148.047821 357.025182 147.666219 356.642107 147.308191 356.256085 146.995838 355.778714 147.230103 352.714111 147.529196 352.840821 147.045932 353.160541 146.452165 353.539196 145.954167 354.211052 145.557832 354.247886 144.843249 354.924161 144.694439 355.344071 144.45428 355.724199 144.127193 355.920157 143.808945 355.799341 143.347782 355.531188 142.827683 355.46194 142.398934 355.942257 142.251597 356.176523 142.07332 356.403421 142.017332 356.642107 142.07332 356.874899 142.251597 357.548227 142.354733 358.828583 142.129307 359.43561 142.251597 359.773011 142.447555 360.111885 142.502069 360.820574 142.431348 360.34615 143.511325 360.492014 144.133086 361.053366 144.469014 361.810677 144.712119 361.916759 144.796101 361.988954 144.927231 362.097983 145.070147 362.293941 145.154129 362.469272 145.115822 363.44464 144.694439 364.129756 144.547102 365.91695 144.625191 366.633006 144.339357 367.148684 143.667502 367.226773 143.318314 367.185518 143.098783 367.061756 142.921979 366.9763 142.827683 366.843697 142.594891 366.843697 142.362099 367.139844 142.275171 367.54502 142.415141 367.876527 142.625832 368.212455 142.67298 368.610264 142.322319 368.647098 142.251597 368.688352 142.148461 368.688352 142.051219 368.664779 141.956924 368.477661 141.691718 368.4202 141.542908 368.454087 141.420618 368.610264 141.341056 368.87547 141.397044 369.084688 141.327796 369.193717 141.108264 369.18635 140.726662 369.099422 140.734029 368.664779 140.398102 368.610264 140.377475 369.730023 139.458094 370.351783 139.110379 371.263797 138.789185 371.206336 138.781818 371.272638 138.758245 371.37872 138.378116 371.436181 138.238146 371.37872 137.869804 371.246117 137.678267 371.08552 137.532404 370.926396 137.334972 370.34589 136.176906 369.993755 135.686275 369.612153 135.491791 369.510491 135.313513 369.427982 134.899497 369.358734 134.083252 369.450083 133.848987 369.878833 133.39961 370.023223 133.141771 370.04385 132.518537 369.721182 131.182193 369.790431 130.642941 370.158772 129.406786 370.295795 129.219669 370.64793 129.034025 370.711285 128.605275 370.569842 127.890692 370.578682 127.716835 370.555108 127.626959 370.546268 127.525297 370.569842 127.36912 370.64793 127.19821 370.817367 127.034666 370.926396 126.847548 371.091413 126.457106 371.137088 126.286196 371.10762 125.665908 371.237277 125.153177 371.931232 124.41944 372.172865 123.962697 372.11835 122.761903 371.004485 120.794958 370.926396 119.208142 371.091413 118.461145 371.263797 117.867379 371.447968 117.527031 371.620352 117.294239 371.750008 116.989252 371.80747 116.430846 371.979854 115.962316 373.60645 113.674177 373.876076 113.114298 374.041094 112.46307 374.095608 111.674819 374.273885 110.867414 374.690848 110.524119 375.168219 110.267753 375.51888 109.697561 375.548348 109.155362 375.415745 108.64263 375.252201 108.144632 375.168219 107.677575 375.197686 107.170737 375.387751 106.1438 375.51888 105.707684 375.698631 105.337869 375.868068 105.08445 375.991831 104.711688 376.046346 103.975004 376.178949 103.624343 376.492776 103.304623 377.136637 102.788944 377.136637 102.528158 376.83165 101.7016 376.83165 100.347576 377.052655 99.079007 378.138526 97.3861087 378.443513 97.1665771 378.872263 97.0266072 379.268598 96.6818394 379.968448 95.8434938 380.279328 95.6416426 380.624096 95.3071883 380.892248 94.94032 381.010118 94.6279663 381.041059 93.8839161 381.182502 93.5406217 381.468335 93.437486 382.202071 93.4330659 382.396556 93.3638177 382.543893 93.2297413 382.598407 93.0205233 382.652922 92.653655 382.776684 92.4444369 382.891607 92.3295143 382.946122 92.2322721 383.174493 92.2160651 384.123342 91.7107003 384.279518 91.5780973 384.599239 91.0358984 385.772039 87.8136455 386.575024 86.2916577 387.118696 85.6654769 386.813709 85.3870106"></polygon>
                </g>
            </g>
        </g>
    </g>
</svg>