<?xml version="1.0" encoding="UTF-8" standalone="no"?>
<svg width="63px" height="63px" viewBox="0 0 63 63" version="1.1" xmlns="http://www.w3.org/2000/svg" xmlns:xlink="http://www.w3.org/1999/xlink">
    <!-- Generator: Sketch 39.1 (31720) - http://www.bohemiancoding.com/sketch -->
    <title>Star</title>
    <desc>Created with Sketch.</desc>
    <defs></defs>
    <g id="Homepage" stroke="none" stroke-width="1" fill="none" fill-rule="evenodd">
        <g id="Mobile-Portrait" transform="translate(-215.000000, -31.000000)" fill="#FFD52E">
            <g id="Header" transform="translate(42.000000, 31.000000)">
                <g id="macaron" transform="translate(173.000000, 0.000000)">
                    <polygon id="Star" points="31.4682816 61.6144585 28.6446434 62.8731903 26.0911374 61.1305067 23.088121 61.8648301 20.886819 59.6942061 17.8009438 59.8805193 16.0225976 57.3517205 12.9530461 56.9840353 11.6548132 54.1783394 8.70024339 53.2684734 7.92384988 50.2760577 5.1792241 48.8532549 4.94962402 45.7702982 2.50315676 43.8802885 2.82772963 40.8058794 0.758052362 38.5094094 1.62636614 35.5423621 -1.16573418e-15 32.9132422 1.38414638 30.1489199 0.2533641 27.2716521 2.10885547 24.7989026 1.51000133 21.7659647 3.77720067 19.664264 3.72952234 16.5731371 6.33556 14.9100357 6.8405899 11.8600712 9.70170568 10.6890226 10.7432117 7.77824882 13.767447 7.13689132 15.3119544 4.458863 18.4021078 4.36781044 20.3999746 2.00860157 23.4567261 2.47078046 25.8437394 0.506217959 28.7688424 1.50677348 31.4682816 0 34.1677208 1.50677348 37.0928238 0.506217959 39.4798371 2.47078046 42.5365886 2.00860157 44.5344554 4.36781044 47.6246088 4.458863 49.1691162 7.13689132 52.1933515 7.77824882 53.2348575 10.6890226 56.0959733 11.8600712 56.6010032 14.9100357 59.2070408 16.5731371 59.1593625 19.664264 61.4265619 21.7659647 60.8277077 24.7989026 62.6831991 27.2716521 61.5524168 30.1489199 62.9365632 32.9132422 61.310197 35.5423621 62.1785108 38.5094094 60.1088336 40.8058794 60.4334064 43.8802885 57.9869392 45.7702982 57.7573391 48.8532549 55.0127133 50.2760577 54.2363198 53.2684734 51.28175 54.1783394 49.983517 56.9840353 46.9139656 57.3517205 45.1356194 59.8805193 42.0497441 59.6942061 39.8484422 61.8648301 36.8454258 61.1305067 34.2919198 62.8731903"></polygon>
                </g>
            </g>
        </g>
    </g>
</svg>