<?xml version="1.0" encoding="UTF-8" standalone="no"?>
<svg width="171px" height="100px" viewBox="0 0 171 100" version="1.1" xmlns="http://www.w3.org/2000/svg" xmlns:xlink="http://www.w3.org/1999/xlink">
    <!-- Generator: Sketch 39.1 (31720) - http://www.bohemiancoding.com/sketch -->
    <title>Group 6</title>
    <desc>Created with Sketch.</desc>
    <defs></defs>
    <g id="Homepage" stroke="none" stroke-width="1" fill="none" fill-rule="evenodd">
        <g id="Mobile-Portrait" transform="translate(-149.000000, -968.000000)">
            <g id="Solutions-sont-là" transform="translate(-95.000000, 860.000000)">
                <g id="Carte-event" transform="translate(135.000000, 0.000000)">
                    <g id="Group-6" transform="translate(109.000000, 108.000000)">
                        <g id="map" transform="translate(11.000000, 0.000000)">
                            <path d="M140.357143,72.7486801 L167.510357,100 L113.203929,100 L140.357143,72.7486801 L140.357143,72.7486801 Z M169.653214,31.1824604 L115.153929,85.876496 L42.1360714,13.5880259 L55.5075,0 L138.581786,0 L169.653214,31.1824604 L169.653214,31.1824604 Z M109.092857,91.9592262 L101.081786,100 L4.28571429,100 C1.91892857,100 0,98.0742143 0,95.6978957 L0,56.4026193 L36.1125,19.7083902 L109.092857,91.9592262 Z M0,44.1608155 L0,4.30102902 C0,1.92578574 1.91892857,0 4.28571429,0 L43.4603571,0 L0,44.1608155 L0,44.1608155 Z M150.703929,0 L190.714286,0 C193.081071,0 195,1.92578574 195,4.30102902 L195,44.4543607 L150.703929,0 L150.703929,0 Z M175.714286,37.2651907 L195,56.6198213 L195,95.6978957 C195,98.0742143 193.081071,100 190.714286,100 L179.6325,100 L146.418214,66.6659498 L175.714286,37.2651907 L175.714286,37.2651907 Z" fill="#FFD52E"></path>
                            <path d="M144.752001,34.6957126 C141.411037,41.9866263 132.514047,50.0285126 132.5,49.9998333 C132.487034,50.0423212 123.552225,41.9547604 120.227469,34.6521626 C119.065912,32.2951496 119,28.9917199 119,28.8536344 C119,21.7549782 125.043341,16 132.5,16 C139.955579,16 146,21.7549782 146,28.8536344 C146,29.1361785 145.743917,32.9685819 144.752001,34.6957126 L144.752001,34.6957126 Z M132.501081,25.5640132 C130.412438,25.5640132 128.719265,27.2284744 128.719265,29.2816994 C128.719265,31.3349243 130.412438,32.9993856 132.501081,32.9993856 C134.589723,32.9993856 136.282896,31.3349243 136.282896,29.2816994 C136.282896,27.2284744 134.589723,25.5640132 132.501081,25.5640132 L132.501081,25.5640132 Z" id="marker" fill="#4C322E"></path>
                            <path d="M71.260445,76.0789408 C69.2806147,80.3994823 64.008324,85.1650445 64,85.1480494 C63.9923163,85.1732273 58.6976149,80.3805988 56.7273891,76.0531334 C56.0390587,74.6563849 56,72.698797 56,72.6169685 C56,68.4103574 59.581239,65 64,65 C68.4181207,65 72,68.4103574 72,72.6169685 C72,72.7844021 71.8482472,75.0554559 71.260445,76.0789408 L71.260445,76.0789408 Z M64.0006403,70.6675634 C62.7629262,70.6675634 61.7595646,71.6539108 61.7595646,72.8706367 C61.7595646,74.0873626 62.7629262,75.07371 64.0006403,75.07371 C65.2383544,75.07371 66.241716,74.0873626 66.241716,72.8706367 C66.241716,71.6539108 65.2383544,70.6675634 64.0006403,70.6675634 L64.0006403,70.6675634 Z" id="marker-copy" fill="#4C322E"></path>
                        </g>
                        <g id="fleche" transform="translate(0.000000, 39.000000)">
                            <g>
                                <circle id="Oval-2" fill="#4C322E" cx="11" cy="11" r="11"></circle>
                                <g id="Group-3" transform="translate(5.000000, 7.000000)" stroke="#FFFFFF" stroke-width="2" stroke-linecap="round" stroke-linejoin="round">
                                    <path d="M0,4 L11,4" id="Line"></path>
                                    <path d="M6,0 L11,4" id="Line-Copy-3"></path>
                                    <path d="M6,4 L11,8" id="Line-Copy-4" transform="translate(8.500000, 6.000000) scale(1, -1) translate(-8.500000, -6.000000) "></path>
                                </g>
                            </g>
                        </g>
                    </g>
                </g>
            </g>
        </g>
    </g>
</svg>