<?xml version="1.0" encoding="UTF-8" standalone="no"?>
<svg width="870px" height="421px" viewBox="0 0 870 421" version="1.1" xmlns="http://www.w3.org/2000/svg" xmlns:xlink="http://www.w3.org/1999/xlink">
    <!-- Generator: Sketch 39.1 (31720) - http://www.bohemiancoding.com/sketch -->
    <title>Fill 1</title>
    <desc>Created with Sketch.</desc>
    <defs></defs>
    <g id="Homepage" stroke="none" stroke-width="1" fill="none" fill-rule="evenodd">
        <g id="Desktop" transform="translate(-71.000000, -24.000000)" fill="#4E7F4F">
            <g id="Bkg">
                <path d="M586.236024,384.180777 C517.021965,451.055904 487.580833,425.278426 474.043502,410.836017 C472.223188,408.893929 469.845734,407.56291 468.132209,405.525399 C467.610463,404.905154 415.449267,342.958956 369.257946,295.813613 C341.495556,267.477472 311.312996,263.159002 295.569075,277.377536 L118.614729,437.628274 C106.933716,448.207303 88.9081474,447.291005 78.3542285,435.581588 C67.8003096,423.872171 68.7144333,405.803714 80.3960564,395.224685 L261.712323,231.023096 C264.17826,228.790459 266.125502,226.021989 269.202279,224.767431 C272.426122,223.455374 333.541215,173.701821 409.932793,255.770502 C448.649413,297.364837 471.11257,324.471498 487.618057,341.697669 C500.112506,349.75963 509.05847,378.275605 548.017351,341.777799 L893.385271,31.3715131 C905.066894,20.7924834 923.092463,21.7093938 933.645771,33.418199 C944.19969,45.1276159 943.285567,63.1960726 931.603944,73.7751023 L586.236024,384.180777 Z" id="Fill-1"></path>
            </g>
        </g>
    </g>
</svg>