<?xml version="1.0" encoding="UTF-8" standalone="no"?>
<svg width="904px" height="360px" viewBox="0 0 904 360" version="1.1" xmlns="http://www.w3.org/2000/svg" xmlns:xlink="http://www.w3.org/1999/xlink">
    <!-- Generator: Sketch 39.1 (31720) - http://www.bohemiancoding.com/sketch -->
    <title>Fill 1 Copy 2</title>
    <desc>Created with Sketch.</desc>
    <defs></defs>
    <g id="Homepage" stroke="none" stroke-width="1" fill="none" fill-rule="evenodd">
        <g id="Desktop" transform="translate(-63.000000, -2451.000000)" fill="#4E7F4F">
            <g id="Bkg">
                <path d="M579.218508,2486.75852 C503.366207,2427.49053 476.760601,2456.21513 464.79735,2471.99887 C463.188704,2474.12132 460.96189,2475.69432 459.469466,2477.9005 C459.015026,2478.5721 413.576242,2545.6531 372.533164,2597.38661 C347.865061,2628.48038 318.282061,2635.93789 301.131833,2623.44444 L108.325216,2482.5852 C95.597704,2473.28624 77.7566643,2476.08608 68.4768765,2488.83882 C59.1970887,2501.59157 61.9924632,2519.46806 74.720582,2528.76696 L272.279948,2673.09905 C274.966738,2675.06146 277.193316,2677.61119 280.385854,2678.53673 C283.730733,2679.50406 349.737075,2722.59011 417.186611,2632.9553 C451.371196,2587.52632 470.894518,2558.21065 485.520753,2539.34702 C497.112176,2530.01901 503.037881,2500.71764 545.613811,2532.93967 L921.674784,2805.51146 C934.402903,2814.81036 952.243879,2812.00991 961.523124,2799.25784 C970.802911,2786.5051 968.007537,2768.6286 955.279418,2759.3297 L579.218508,2486.75852" id="Fill-1-Copy-2"></path>
            </g>
        </g>
    </g>
</svg>