<?xml version="1.0" encoding="UTF-8" standalone="no"?>
<svg width="796px" height="555px" viewBox="0 0 796 555" version="1.1" xmlns="http://www.w3.org/2000/svg" xmlns:xlink="http://www.w3.org/1999/xlink">
    <!-- Generator: Sketch 39.1 (31720) - http://www.bohemiancoding.com/sketch -->
    <title>Fill 1 Copy</title>
    <desc>Created with Sketch.</desc>
    <defs></defs>
    <g id="Homepage" stroke="none" stroke-width="1" fill="none" fill-rule="evenodd">
        <g id="Desktop" transform="translate(-140.000000, -616.000000)" fill="#4E7F4F">
            <g id="Bkg">
                <path d="M622.176507,1040.94325 C715.475479,1017.57179 709.26027,978.908305 704.210265,959.758705 C703.531149,957.183692 703.664635,954.459089 702.848137,951.924245 C702.599651,951.152498 677.810267,874.030632 662.385585,809.819938 C653.114582,771.227168 665.457751,743.300626 685.839305,737.45821 L915.291837,672.025783 C930.438878,667.706836 939.218,651.909366 934.900102,636.74173 C930.582204,621.574094 914.802437,612.779809 899.655073,617.099274 L664.545972,684.144253 C661.348896,685.056362 657.973173,685.244029 655.280269,687.193111 C652.460737,689.236664 577.948438,714.79757 606.928047,823.161136 C621.615819,878.081975 632.655004,911.521975 638.48818,934.667473 C638.689839,949.551478 658.087065,972.255589 606.54026,986.01707 L160.708118,1114.97422 C145.560753,1119.29368 136.782149,1135.09148 141.099853,1150.25827 C145.417751,1165.42591 161.197518,1174.22019 176.344882,1169.90073 L622.176507,1040.94325" id="Fill-1-Copy"></path>
            </g>
        </g>
    </g>
</svg>