<?xml version="1.0" encoding="UTF-8" standalone="no"?>
<svg width="904px" height="360px" viewBox="0 0 904 360" version="1.1" xmlns="http://www.w3.org/2000/svg" xmlns:xlink="http://www.w3.org/1999/xlink">
    <!-- Generator: Sketch 39.1 (31720) - http://www.bohemiancoding.com/sketch -->
    <title>Fill 1 Copy 3</title>
    <desc>Created with Sketch.</desc>
    <defs></defs>
    <g id="Homepage" stroke="none" stroke-width="1" fill="none" fill-rule="evenodd">
        <g id="Desktop" transform="translate(-95.000000, -3614.000000)" fill="#4E7F4F">
            <g id="Bkg">
                <path d="M611.218508,3938.24148 C535.366207,3997.50947 508.760601,3968.78487 496.79735,3953.00113 C495.188704,3950.87868 492.96189,3949.30568 491.469466,3947.0995 C491.015026,3946.4279 445.576242,3879.3469 404.533164,3827.61339 C379.865061,3796.51962 350.282061,3789.06211 333.131833,3801.55556 L140.325216,3942.4148 C127.597704,3951.71376 109.756664,3948.91392 100.476876,3936.16118 C91.1970887,3923.40843 93.9924632,3905.53194 106.720582,3896.23304 L304.279948,3751.90095 C306.966738,3749.93854 309.193316,3747.38881 312.385854,3746.46327 C315.730733,3745.49594 381.737075,3702.40989 449.186611,3792.0447 C483.371196,3837.47368 502.894518,3866.78935 517.520753,3885.65298 C529.112176,3894.98099 535.037881,3924.28236 577.613811,3892.06033 L953.674784,3619.48854 C966.402903,3610.18964 984.243879,3612.99009 993.523124,3625.74216 C1002.80291,3638.4949 1000.00754,3656.3714 987.279418,3665.6703 L611.218508,3938.24148" id="Fill-1-Copy-3"></path>
            </g>
        </g>
    </g>
</svg>